<?xml version="1.0" encoding="utf-8"?>
<!-- Generator: Adobe Illustrator 23.0.0, SVG Export Plug-In . SVG Version: 6.00 Build 0)  -->
<svg version="1.1" id="Layer_1" xmlns="http://www.w3.org/2000/svg" xmlns:xlink="http://www.w3.org/1999/xlink" x="0px" y="0px"
	 width="32px" height="32px" viewBox="0 0 32 32" style="enable-background:new 0 0 32 32;" xml:space="preserve">
<style type="text/css">
	.st0{fill:#FFFFFF;}
</style>
<g>
	<g>
		<path class="st0" d="M14.0253906,14.1132813v4.3066406c0,1.0146484-0.6982422,1.8691406-1.640625,2.1074219v3.7988281
			c0,1.1992188-0.9746094,2.1738281-2.1733398,2.1738281H7.996582c-1.1987305,0-2.1738281-0.9746094-2.1738281-2.1738281v-3.7988281
			c-0.9418945-0.2382813-1.640625-1.0927734-1.640625-2.1074219v-4.3066406c0-1.3178711,0.8442383-2.4414063,2.0200195-2.8598633
			c-0.4443359-0.6000977-0.7075195-1.3417969-0.7075195-2.144043C5.4946289,7.1191406,7.1137695,5.5,9.1040039,5.5
			c1.9897461,0,3.6088867,1.6191406,3.6088867,3.609375c0,0.8022461-0.2626953,1.5439453-0.7070313,2.144043
			C13.1816406,11.671875,14.0253906,12.7954102,14.0253906,14.1132813z M12.7128906,14.1132813
			c0-0.9511719-0.7705078-1.7226563-1.722168-1.7226563h-0.3837891c-0.9716797,0.4467773-2.0742188,0.4282227-3.0058594,0H7.2172852
			c-0.9516602,0-1.7226563,0.7714844-1.7226563,1.7226563v4.3066406c0,0.4755859,0.3857422,0.8613281,0.8613281,0.8613281h0.7792969
			v5.0449219c0,0.4755859,0.3857422,0.8613281,0.8613281,0.8613281h2.2148438c0.4755859,0,0.8608398-0.3857422,0.8608398-0.8613281
			V19.28125h0.7792969c0.4765625,0,0.8613281-0.3857422,0.8613281-0.8613281V14.1132813z M6.8071289,9.109375
			c0,1.2685547,1.0283203,2.296875,2.296875,2.296875s2.2963867-1.0283203,2.2963867-2.296875S10.3725586,6.8125,9.1040039,6.8125
			S6.8071289,7.8408203,6.8071289,9.109375z"/>
	</g>
	<path class="st0" d="M16.0102539,11.7890625h-0.4375c-0.2392578,0-0.4335938,0.1636848-0.4335938,0.3652058v3.3164635
		c0,0.2015209,0.1943359,0.3652058,0.4335938,0.3652058h0.4375c0.2392578,0,0.4335938-0.1636848,0.4335938-0.3652058v-3.3164635
		C16.4438477,11.9527473,16.2495117,11.7890625,16.0102539,11.7890625z"/>
	<path class="st0" d="M27.2446289,14.4619141l-1.5996094-1.5996094c-0.3652344-0.3652344-0.8720703-0.5742188-1.3916016-0.5742188
		h-1.9003906c-0.359375,0-0.6523438,0.2924805-0.6523438,0.6523438v5.4726563h-5.2700195
		c-0.4379272-0.3310547-0.9804688-0.4603882-1.5053711-0.4091187v0.4159546c0,0.3269653-0.0562744,0.6419678-0.1522827,0.9405518
		c0.1112061-0.0509644,0.2322388-0.0831299,0.3622437-0.0831299c0.484375,0,0.8789063,0.3945313,0.8789063,0.8789063
		s-0.3945313,0.8789063-0.8789063,0.8789063c-0.43573,0-0.7825928-0.3249512-0.8511353-0.7416992
		c-0.2668457,0.3464966-0.604126,0.6384888-0.9994507,0.8461914v0.8234253
		c0.1130981-0.0771484,0.2205811-0.1642456,0.3193359-0.2628784c0.4086914,0.4091797,0.9545898,0.6396484,1.53125,0.6396484
		c1.2041016,0,2.1835938-0.9794922,2.1835938-2.1835938c0-0.1464844-0.015625-0.2929688-0.0488281-0.4414063h4.8779297
		c-0.03125,0.3388672,0.0087891,0.6787109,0.1220703,1.0126953c0.2548828,0.7617188,0.8955078,1.3515625,1.6728516,1.5380859
		c0.7392578,0.1787109,1.4960938,0.0185547,2.0810547-0.4404297c0.5839844-0.4589844,0.9189453-1.1484375,0.9189453-1.890625
		c0-0.0742188-0.0029297-0.1474609-0.0097656-0.2226563h0.2324219c0.359375,0,0.6523438-0.2929688,0.6523438-0.6523438v-3.2099609
		C27.8178711,15.324707,27.6147461,14.831543,27.2446289,14.4619141z M23.0053711,13.5898438h1.2480469
		c0.1777344,0,0.3427734,0.0688477,0.4658203,0.1938477l1.1259766,1.1264648h-2.8398438V13.5898438z M24.5405273,21.0351563
		c-0.6054688,0-1.0976563-0.4921875-1.0976563-1.0976563s0.4921875-1.0976563,1.0976563-1.0976563
		s1.0976563,0.4921875,1.0976563,1.0976563S25.1459961,21.0351563,24.5405273,21.0351563z M26.5131836,18.4101563h-0.1289063
		c-0.4609375-0.5576172-1.1269531-0.875-1.84375-0.875c-0.5703125,0-1.1074219,0.2001953-1.5351563,0.5625v-1.8828125h3.5078125
		V18.4101563z"/>
	<path class="st0" d="M18.6342773,11.7890625h-0.4375c-0.2392578,0-0.4335938,0.1636848-0.4335938,0.3652058v3.3164635
		c0,0.2015209,0.1943359,0.3652058,0.4335938,0.3652058h0.4375c0.2392578,0,0.4335938-0.1636848,0.4335938-0.3652058v-3.3164635
		C19.0678711,11.9527473,18.8735352,11.7890625,18.6342773,11.7890625z"/>
	<path class="st0" d="M13.3397217,10.9648438h6.6109619v5.6953125H14.925293v1.3046875h5.2402344
		c0.6005859,0,1.0898438-0.4892578,1.0898438-1.0898438V10.75c0-0.6010742-0.4892578-1.0898438-1.0898438-1.0898438h-6.6083984
		c-0.0519409,0.4246216-0.1414795,0.8409424-0.3100586,1.230957C13.279541,10.9138794,13.3080444,10.9411621,13.3397217,10.9648438z
		"/>
</g>
</svg>
