<?xml version="1.0" encoding="utf-8"?>
<!-- Generator: Adobe Illustrator 23.0.0, SVG Export Plug-In . SVG Version: 6.00 Build 0)  -->
<svg version="1.1" id="Layer_1" xmlns="http://www.w3.org/2000/svg" xmlns:xlink="http://www.w3.org/1999/xlink" x="0px" y="0px"
	 width="32px" height="24px" viewBox="0 0 32 24" style="enable-background:new 0 0 32 24;" xml:space="preserve">
<style type="text/css">
	.st0{fill:#FFFFFF;}
	.st1{fill:#231F20;}
	.st2{fill:none;stroke:#231F20;stroke-width:1.3;stroke-miterlimit:10;}
</style>
<g>
	<path class="st0" d="M23.4,13.5c1.1,0,2-0.9,2-2c0-0.4-0.1-0.7-0.3-1l2.6-3.2c0.1-0.1,0.2-0.3,0.1-0.5c0-0.2-0.1-0.3-0.2-0.4l0,0
		c-0.1-0.1-0.3-0.2-0.5-0.1c-0.2,0-0.3,0.1-0.4,0.2l-2.6,3.2c-0.2-0.1-0.4-0.1-0.7-0.1c-1.1,0-2,0.9-2,2S22.3,13.5,23.4,13.5z
		 M23.4,10.9c0.4,0,0.7,0.3,0.7,0.7s-0.3,0.7-0.7,0.7s-0.7-0.3-0.7-0.7S23,10.9,23.4,10.9z"/>
	<g>
		<path class="st0" d="M21.5,16.2c0-1.3-0.8-2.3-2-2.7V9.6V7.1V6.4c0,0,0,0,0,0V2.4c0-0.4-0.3-1.5-0.6-1.5c-0.4,0-0.7,0.3-0.7,0.6
			v2.1c-1.5-1.4-4.1-2.3-7.2-2.3c-3.1,0-5.7,0.9-7.2,2.3V1.6C3.8,1.2,3.5,1,3.2,1C2.8,1,2.5,2.1,2.5,2.4v5.9c0,0,0,0,0,0v1.3v3.9
			c-1.2,0.4-2,1.4-2,2.7v2.6h0v0.7c0,0.5,0.2,0.9,0.6,1.2v1.1c0,0.7,0.6,1.3,1.3,1.3h2c0.7,0,1.3-0.6,1.3-1.3v-0.3h10.5v0.3
			c0,0.7,0.6,1.3,1.3,1.3h2c0.7,0,1.3-0.6,1.3-1.3v-1.1c0.4-0.3,0.6-0.7,0.6-1.2v-0.7h0V16.2z M20.2,19.5c0,0.2-0.8,0.7-2.3,0.7H4.1
			c-1.5,0-2.3-0.5-2.3-0.7v-0.7h18.4V19.5z M7.4,17.5v-4.1c0-1,0.7-1.7,1.5-1.7h4.1c0.9,0,1.5,0.8,1.5,1.7v4.1H7.4z M20.2,16.2v1.3
			h-4.3c0-0.7,0-1.9,0-2.8h2.7C19.5,14.7,20.2,15.3,20.2,16.2z M3.8,8.3C3.8,8.3,3.8,8.3,3.8,8.3l0-1.2c0-0.7,0.5-1.2,1.2-1.2h5.3
			v2.4L3.8,8.3L3.8,8.3z M11.7,5.9H17c0.7,0,1.2,0.5,1.2,1.2v1.2c0,0,0,0,0,0v0h-6.6V5.9z M17.3,4.7c-0.1,0-0.2,0-0.3,0H5
			c-0.1,0-0.2,0-0.3,0C5.8,3.6,8,2.7,11,2.7S16.2,3.6,17.3,4.7z M18.2,9.6v3.7h-2.3l0,0c0-1.7-1.3-3-2.8-3H8.9c-1.6,0-2.8,1.4-2.8,3
			l0,0H3.8V9.6H18.2z M1.8,16.2c0-0.8,0.7-1.5,1.5-1.5h2.7c0,0.9,0,2.1,0,2.8H1.8V16.2z M4.4,21.7h-2v-0.5c0.5,0.1,1,0.2,1.6,0.2
			h0.3V21.7z M19.5,21.7h-2v-0.3h0.3c0.6,0,1.2-0.1,1.6-0.2V21.7z"/>
	</g>
	<path class="st0" d="M23.4,2.6c-0.9,0-1.8,0.2-2.6,0.4v1.4c0.8-0.3,1.7-0.5,2.6-0.5c3.7,0,6.8,3,6.8,6.8c0,1.2-0.3,2.3-0.9,3.3
		l-7.2,0c0.2,0.4,0.4,0.8,0.5,1.3h6.8c0.4,0,0.7-0.2,0.9-0.5c0.7-1.2,1.1-2.6,1.1-4.1C31.5,6.2,27.9,2.6,23.4,2.6z"/>
</g>
</svg>
