<?xml version="1.0" encoding="utf-8"?>
<!-- Generator: Adobe Illustrator 23.0.0, SVG Export Plug-In . SVG Version: 6.00 Build 0)  -->
<svg version="1.1" id="Layer_1" xmlns="http://www.w3.org/2000/svg" xmlns:xlink="http://www.w3.org/1999/xlink" x="0px" y="0px"
	 width="24px" height="24px" viewBox="0 0 24 24" style="enable-background:new 0 0 24 24;" xml:space="preserve">
<style type="text/css">
	.st0{fill:#010101;}
	.st1{fill:#FFFFFF;}
</style>
<g>
	<g>
		<path class="st1" d="M8.6,14.2v-0.5c0-0.2-0.2-0.4-0.4-0.4H0.7c-0.2,0-0.4,0.2-0.4,0.4v0.5c0,0.2,0.2,0.4,0.4,0.4h7.5
			C8.4,14.6,8.6,14.4,8.6,14.2z"/>
		<path class="st1" d="M9.2,12.6c0.2,0,0.4-0.2,0.4-0.4v-0.5c0-0.2-0.2-0.4-0.4-0.4H1.7c-0.2,0-0.4,0.2-0.4,0.4v0.5
			c0,0.2,0.2,0.4,0.4,0.4H9.2z"/>
		<path class="st1" d="M20.2,18.3h-0.6v-3.3c0-0.6-0.2-1.1-0.6-1.5l-2.6-2.6c-0.4-0.4-0.9-0.6-1.5-0.6h-1.3V8.9
			c0-0.9-0.7-1.6-1.7-1.6H4C3.1,7.3,2.4,8,2.4,8.9v0.4H0.7c-0.2,0-0.4,0.2-0.4,0.4v0.5c0,0.2,0.2,0.4,0.4,0.4h7.5
			c0.2,0,0.4-0.2,0.4-0.4V9.7c0-0.2-0.2-0.4-0.4-0.4H3.6V8.9c0-0.2,0.2-0.3,0.4-0.3h7.9c0.2,0,0.4,0.1,0.4,0.3v9.4H7
			c-0.5-0.6-1.2-1-2-1c-0.5,0-1,0.1-1.4,0.4v-2.4H2.4v4.6c0,1.4,1.2,2.6,2.6,2.6s2.6-1.2,2.6-2.6c0-0.1,0-0.2,0-0.4h5.8
			c0,0.1,0,0.2,0,0.4c0,1.4,1.2,2.6,2.6,2.6s2.6-1.2,2.6-2.6c0-0.1,0-0.2,0-0.4h1.7c0.2,0,0.4-0.2,0.4-0.4v-0.5
			C20.6,18.5,20.4,18.3,20.2,18.3z M13.6,14.3v-2.8h1.3c0.2,0,0.5,0.1,0.6,0.3l2.5,2.5H13.6z M16,21.3c-0.8,0-1.4-0.6-1.4-1.4
			s0.6-1.4,1.4-1.4s1.4,0.6,1.4,1.4S16.7,21.3,16,21.3z M18.4,15.6v2.8H18c-0.5-0.6-1.2-1-2-1s-1.5,0.4-2,1h-0.3v-2.8H18.4z M5,21.3
			c-0.8,0-1.4-0.6-1.4-1.4s0.6-1.4,1.4-1.4s1.4,0.6,1.4,1.4S5.7,21.3,5,21.3z"/>
	</g>
	<path class="st1" d="M19.3,9.8l-1.9-1.4V4.5c0-0.3-0.2-0.5-0.5-0.5h-0.4c-0.3,0-0.5,0.2-0.5,0.5v4.4c0,0.1,0.1,0.3,0.2,0.4l2.2,1.6
		c0.1,0.1,0.2,0.1,0.3,0.1c0.1,0,0.3-0.1,0.4-0.2l0.2-0.3C19.5,10.3,19.5,10,19.3,9.8z"/>
	<path class="st1" d="M16.7,1.4c-2.8,0-5.4,1.7-6.4,4.4L10.3,6h1.2l0-0.1c0.9-2.1,3-3.4,5.2-3.4c3.2,0,5.8,2.6,5.8,5.8
		c0,1.8-0.8,3.4-2.2,4.5L20.2,13l0.8,0.8l0.1-0.1c1.6-1.3,2.5-3.3,2.5-5.3C23.6,4.5,20.5,1.4,16.7,1.4z"/>
</g>
</svg>
