<?xml version="1.0" encoding="utf-8"?>
<!-- Generator: Adobe Illustrator 23.0.0, SVG Export Plug-In . SVG Version: 6.00 Build 0)  -->
<svg version="1.1" id="Layer_1" xmlns="http://www.w3.org/2000/svg" xmlns:xlink="http://www.w3.org/1999/xlink" x="0px" y="0px"
	 width="30px" height="24px" viewBox="0 0 30 24" style="enable-background:new 0 0 30 24;" xml:space="preserve">
<style type="text/css">
	.st0{fill:#010101;}
	.st1{fill:#FFFFFF;}
</style>
<g>
	<path class="st1" d="M21.1,19.3l-1.6-1.6c-0.3-0.3-0.7-0.3-0.9,0l-0.1,0.1c-0.3,0.3-0.3,0.7,0,0.9l0.3,0.3h-3.9
		c-0.4,0-0.7,0.3-0.7,0.7v0.1c0,0.4,0.3,0.7,0.7,0.7h3.9l-0.3,0.3c-0.1,0.1-0.2,0.3-0.2,0.5s0.1,0.3,0.2,0.5l0.1,0.1
		c0.1,0.1,0.3,0.2,0.5,0.2c0.2,0,0.3-0.1,0.5-0.2l1.6-1.6C21.4,20,21.4,19.6,21.1,19.3z"/>
	<path class="st1" d="M15.9,9.6h-0.2V7.4c0-0.5-0.2-1-0.6-1.3l-2-2c-0.3-0.4-0.8-0.6-1.3-0.6h-0.7V2.8c0-0.8-0.7-1.5-1.5-1.5H2.2
		C1.4,1.3,0.7,2,0.7,2.8v6.8c0,0.8,0.7,1.5,1.5,1.5c0,0,0,0,0,0c0,1.2,1,2.2,2.3,2.2s2.3-1,2.3-2.2h3.8c0,1.2,1,2.2,2.3,2.2
		s2.3-1,2.3-2.2h0.9c0.3,0,0.6-0.3,0.6-0.6v-0.4C16.4,9.8,16.2,9.6,15.9,9.6z M11.2,6.6V5.1h0.7l0,0c0.1,0,0.2,0,0.2,0.1l1.4,1.4
		H11.2z M14.2,8.1v1.3c-0.4-0.4-0.9-0.6-1.5-0.6c-0.6,0-1.1,0.2-1.5,0.6l0-1.3H14.2z M12.7,11.8c-0.4,0-0.8-0.3-0.8-0.8
		s0.3-0.8,0.8-0.8s0.8,0.3,0.8,0.8S13.1,11.8,12.7,11.8z M2.2,2.8C2.2,2.8,2.2,2.8,2.2,2.8l7.5,0c0,0,0,0,0,0v6.7H6.1
		c-0.4-0.5-1-0.8-1.7-0.8S3.2,9.1,2.8,9.6H2.2c0,0,0,0,0,0V2.8z M4.4,11.8c-0.4,0-0.8-0.3-0.8-0.8s0.3-0.8,0.8-0.8s0.8,0.3,0.8,0.8
		S4.9,11.8,4.4,11.8z"/>
	<path class="st1" d="M25.6,12.9c-2.1,0-3.8,1.7-3.8,3.8c0,1.2,0.4,1.8,1.9,4c0.3,0.5,0.7,1,1.2,1.7c0.1,0.2,0.4,0.3,0.7,0.3
		c0.3,0,0.5-0.1,0.7-0.3c0.5-0.7,0.8-1.2,1.2-1.7c1.5-2.2,1.9-2.7,1.9-4C29.3,14.6,27.6,12.9,25.6,12.9z M25.6,14.2
		c0.7,0,1.3,0.3,1.7,0.7c0.5,0.5,0.7,1.1,0.7,1.7c0,0.8-0.2,1.1-1.6,3.2l0,0c-0.2,0.3-0.5,0.7-0.8,1.1c-0.3-0.4-0.5-0.8-0.8-1.1l0,0
		c-1.4-2-1.7-2.4-1.7-3.2c0-0.7,0.3-1.3,0.7-1.7C24.3,14.5,24.9,14.2,25.6,14.2z"/>
	<path class="st1" d="M11.5,20.4c-1.6,0-3-1.4-3-3.1s1.3-3.1,3-3.1h6.9c1,0,1.7-0.8,1.7-1.8s-0.8-1.8-1.7-1.8
		c-0.3,0-0.6-0.3-0.6-0.6s0.3-0.6,0.6-0.6c1.6,0,3,1.4,3,3.1c0,1.7-1.3,3.1-3,3.1h-6.9c-1,0-1.7,0.8-1.7,1.8s0.8,1.8,1.7,1.8
		c0.3,0,0.6,0.3,0.6,0.6S11.8,20.4,11.5,20.4z"/>
	<circle class="st1" cx="25.6" cy="16.7" r="0.7"/>
</g>
</svg>
