<?xml version="1.0" encoding="utf-8"?>
<!-- Generator: Adobe Illustrator 23.0.0, SVG Export Plug-In . SVG Version: 6.00 Build 0)  -->
<svg version="1.1" id="Layer_1" focusable="false" xmlns="http://www.w3.org/2000/svg" xmlns:xlink="http://www.w3.org/1999/xlink"
	 x="0px" y="0px" width="24px" height="24.8px" viewBox="0 0 24 24.8" style="enable-background:new 0 0 24 24.8;"
	 xml:space="preserve">
<style type="text/css">
	.st0{fill:#FFFFFF;}
</style>
<g>
	<path class="st0" d="M11.3,21.5c-4.7-0.3-8.5-4.3-8.5-9.1c0-5,4.1-9.1,9.1-9.1c4.8,0,8.8,3.7,9.1,8.5h1.4C22.1,6.2,17.6,1.9,12,1.9
		C6.2,1.9,1.5,6.6,1.5,12.4c0,5.6,4.3,10.1,9.8,10.5V21.5z"/>
	<path class="st0" d="M15.6,14.6c0-1.1-0.8-2.1-1.9-2.4l-3-0.9c-0.5-0.1-0.9-0.6-0.9-1.1C9.8,9.5,10.3,9,11,9h1.9
		c0.5,0,0.9,0.2,1.3,0.4c0.1,0.1,0.3,0.1,0.4,0l0.5-0.5c0.1-0.1,0.1-0.4,0-0.5c-0.6-0.5-1.4-0.8-2.2-0.8h-0.2V6
		c0-0.2-0.2-0.3-0.3-0.3h-0.7c-0.2,0-0.3,0.2-0.3,0.3v1.7H11c-1.4,0-2.6,1.1-2.6,2.5c0,1.1,0.8,2.1,1.9,2.4l3,0.9
		c0.5,0.1,0.9,0.6,0.9,1.1c0,0.6-0.5,1.2-1.2,1.2h-1.9c-0.5,0-0.9-0.2-1.3-0.4c-0.1-0.1-0.3-0.1-0.4,0l-0.5,0.5
		c-0.1,0.1-0.1,0.4,0,0.5c0.6,0.5,1.4,0.8,2.2,0.8h0.2v1.7c0,0.2,0.2,0.3,0.3,0.3h0.7c0.2,0,0.3-0.2,0.3-0.3v-1.7H13
		C14.4,17.1,15.6,16,15.6,14.6z"/>
	<path class="st0" d="M21.1,13.1c-0.3,4.5-3.9,8.1-8.4,8.4v1.4c5.3-0.3,9.5-4.5,9.8-9.8H21.1z"/>
</g>
</svg>
